<?xml version="1.0" encoding="utf-8"?>
<!-- Generator: Adobe Illustrator 26.2.1, SVG Export Plug-In . SVG Version: 6.00 Build 0)  -->
<svg version="1.1" id="Layer_1" xmlns="http://www.w3.org/2000/svg" xmlns:xlink="http://www.w3.org/1999/xlink" x="0px" y="0px"
	 width="50px" height="50px" viewBox="0 0 50 50" style="enable-background:new 0 0 50 50;" xml:space="preserve">
<style type="text/css">
	.st0{
		fill:#121212;
		@media ( prefers-color-scheme: dark ) {
			fill: #E0E3F5;
		}
	}
</style>
<g>
	<g>
		<path class="st0" d="M15.7,35.2V10.2h12.3v6.3h-4v3.1h9.7v6h-9.7V29h9.7v6.3H15.7z"/>
	</g>

		<rect x="15.7" y="39.3" transform="matrix(-1 -1.224647e-16 1.224647e-16 -1 49.2758 83.3521)" class="st0" width="17.9" height="4.7"/>
	<g>
		<path class="st0" d="M40.4,10.2h-1.3c-0.1-0.3-0.2-0.7-0.4-1l0.9-0.9c0,0,0,0,0,0c0,0,0,0,0,0l-1.4-1.4c0,0-0.1,0-0.1,0l-0.9,0.9
			c-0.3-0.2-0.6-0.3-1-0.4V6c0,0,0-0.1-0.1-0.1h-2c0,0-0.1,0-0.1,0.1v1.3c-0.3,0.1-0.7,0.2-1,0.4l-0.9-0.9c0,0-0.1,0-0.1,0l-1.4,1.4
			c0,0,0,0.1,0,0.1l0.9,0.9c-0.2,0.3-0.3,0.6-0.4,1h-1.3c0,0-0.1,0-0.1,0.1v2c0,0,0,0.1,0.1,0.1l1.3,0c0.1,0.3,0.2,0.7,0.4,1
			l-0.9,0.9c0,0,0,0.1,0,0.1l1.4,1.4c0,0,0.1,0,0.1,0l0.9-0.9c0.3,0.2,0.6,0.3,1,0.4v1.3c0,0,0,0.1,0.1,0.1h2c0,0,0.1,0,0.1-0.1
			v-1.3c0.3-0.1,0.7-0.2,1-0.4l0.9,0.9c0,0,0.1,0,0.1,0l1.4-1.4c0,0,0-0.1,0-0.1l-0.9-0.9c0.2-0.3,0.3-0.6,0.4-1h1.3
			c0,0,0.1,0,0.1-0.1L40.4,10.2C40.4,10.2,40.4,10.2,40.4,10.2z M35.1,12.9c-0.9,0-1.6-0.7-1.6-1.6c0-0.9,0.7-1.6,1.6-1.6
			s1.6,0.7,1.6,1.6C36.7,12.2,36,12.9,35.1,12.9z"/>
	</g>
</g>
</svg>
