<?xml version="1.0" encoding="utf-8"?>
<svg version="1.1" id="Layer_1" xmlns="http://www.w3.org/2000/svg" xmlns:xlink="http://www.w3.org/1999/xlink" x="0px" y="0px"
	 width="110px" height="45px" viewBox="0 0 110 45" style="enable-background:new 0 0 110 45;" xml:space="preserve">
<style type="text/css">
	.st0{clip-path:url(#SVGID_00000049913397626398329630000018201389171105866152_);}
	.st1{fill:#F4F6FF;}
	.st2{fill:#C3C3C3;}
</style>
<g>
	<defs>
		<rect id="SVGID_1_" x="0.5" width="109" height="45"/>
	</defs>
	<clipPath id="SVGID_00000095317892905048892470000017887490584388326308_">
		<use xlink:href="#SVGID_1_"  style="overflow:visible;"/>
	</clipPath>
	<g style="clip-path:url(#SVGID_00000095317892905048892470000017887490584388326308_);">
		<path class="st1" d="M15.8,13.4v4.8c-0.2,0.4-0.5,0.9-0.9,1.4c-0.4,0.5-0.9,1-1.5,1.4s-1.3,0.8-2.2,1.1c-0.9,0.3-1.9,0.4-3,0.4
			c-1.1,0-2.2-0.2-3-0.5C4.3,21.8,3.6,21.4,3,21c-0.6-0.5-1.1-1-1.5-1.5c-0.4-0.6-0.7-1.1-0.9-1.6v-13c0.2-0.5,0.5-1,0.9-1.6
			C1.8,2.8,2.3,2.2,3,1.8c0.6-0.5,1.4-0.8,2.3-1.1c0.9-0.3,1.9-0.5,3-0.5c1.1,0,2.1,0.1,3,0.4c0.9,0.3,1.6,0.7,2.2,1.1
			c0.6,0.4,1.1,0.9,1.5,1.4c0.4,0.5,0.7,1,0.9,1.4V9h-4.6V5.8c-0.2-0.5-0.5-0.9-1.1-1.3C9.7,4.2,9,4,8.2,4C7.5,4,6.8,4.2,6.3,4.6
			C5.8,4.9,5.5,5.3,5.2,5.8v11.1c0.2,0.5,0.5,0.9,1.1,1.3c0.5,0.4,1.2,0.6,2,0.6c0.8,0,1.4-0.2,1.9-0.6c0.5-0.4,0.9-0.8,1.1-1.3
			v-3.5H15.8z"/>
		<path class="st1" d="M33.7,5.5h4.2v1.4c0.4-0.5,1-0.9,1.7-1.2c0.7-0.3,1.6-0.5,2.6-0.5c0.8,0,1.5,0.1,2.1,0.4
			c0.6,0.3,1.1,0.6,1.5,0.9c0.4,0.4,0.8,0.8,1,1.2c0.3,0.4,0.5,0.8,0.6,1.2v9.8c-0.1,0.4-0.3,0.8-0.6,1.2c-0.3,0.4-0.6,0.9-1,1.2
			c-0.4,0.4-0.9,0.7-1.5,0.9c-0.6,0.3-1.3,0.4-2.1,0.4c-0.9,0-1.7-0.1-2.4-0.4c-0.7-0.3-1.2-0.6-1.7-1.1v5.9h-4.4V5.5z M40.6,8.6
			c-0.6,0-1.1,0.1-1.5,0.3c-0.4,0.2-0.7,0.4-1,0.7v8.3c0.2,0.3,0.6,0.5,1,0.7c0.4,0.2,0.9,0.3,1.5,0.3c0.7,0,1.2-0.1,1.6-0.4
			c0.4-0.3,0.7-0.6,0.8-0.8V9.8c-0.1-0.2-0.4-0.5-0.8-0.8C41.9,8.7,41.3,8.6,40.6,8.6z"/>
		<path class="st1" d="M59,20.7c-0.5,0.5-1.1,0.9-1.8,1.2c-0.7,0.3-1.6,0.5-2.6,0.5c-0.8,0-1.5-0.1-2.1-0.4
			c-0.6-0.3-1.1-0.6-1.5-0.9c-0.4-0.4-0.8-0.8-1-1.2c-0.3-0.4-0.5-0.8-0.6-1.2V8.9c0.1-0.4,0.3-0.8,0.6-1.2c0.3-0.4,0.6-0.9,1-1.2
			c0.4-0.4,0.9-0.7,1.5-0.9c0.6-0.3,1.3-0.4,2.1-0.4c0.9,0,1.7,0.1,2.4,0.4c0.7,0.3,1.2,0.6,1.7,1.1v-6.7h4.4v22.2H59L59,20.7
			L59,20.7z M56.3,18.9c0.6,0,1.1-0.1,1.5-0.3c0.4-0.2,0.8-0.4,1-0.7V9.6c-0.2-0.3-0.6-0.5-1-0.7c-0.4-0.2-0.9-0.3-1.5-0.3
			c-0.7,0-1.2,0.2-1.6,0.4c-0.4,0.3-0.7,0.6-0.8,0.8v7.9c0.1,0.2,0.4,0.5,0.8,0.8C55,18.8,55.6,18.9,56.3,18.9z"/>
		<path class="st1" d="M27.4,20.7c-0.5,0.5-1.1,0.9-1.8,1.2c-0.7,0.3-1.6,0.5-2.6,0.5c-0.8,0-1.5-0.1-2.1-0.4
			c-0.6-0.3-1.1-0.6-1.5-0.9c-0.4-0.4-0.8-0.8-1-1.2c-0.3-0.4-0.5-0.8-0.6-1.2V8.9c0.1-0.4,0.3-0.8,0.6-1.2c0.3-0.4,0.6-0.9,1-1.2
			c0.4-0.4,0.9-0.7,1.5-0.9c0.6-0.3,1.3-0.4,2.1-0.4c0.9,0,1.7,0.1,2.4,0.4c0.7,0.3,1.2,0.6,1.7,1.1l0.8-1.1h3.6v16.7h-4.1
			L27.4,20.7L27.4,20.7z M24.7,18.9c0.6,0,1.1-0.1,1.5-0.3c0.4-0.2,0.8-0.4,1-0.7V9.6c-0.2-0.3-0.6-0.5-1-0.7
			c-0.4-0.2-0.9-0.3-1.5-0.3c-0.7,0-1.2,0.2-1.6,0.4c-0.4,0.3-0.7,0.6-0.8,0.8v7.9c0.1,0.2,0.4,0.5,0.8,0.8
			C23.5,18.8,24,18.9,24.7,18.9z"/>
		<path class="st1" d="M65.3,9.2c0.2-0.4,0.4-0.9,0.8-1.4c0.4-0.5,0.8-0.9,1.4-1.4c0.6-0.4,1.2-0.8,2-1C70.2,5.2,71.2,5,72.2,5
			c1,0,1.9,0.1,2.7,0.4c0.8,0.3,1.4,0.6,2,0.9c0.5,0.4,1,0.8,1.3,1.2c0.3,0.4,0.6,0.7,0.7,1v6.5h-9.2v2.5c0.2,0.4,0.5,0.7,0.9,1
			c0.4,0.3,1,0.5,1.6,0.5c0.7,0,1.2-0.2,1.7-0.5c0.4-0.3,0.7-0.7,0.9-1v-0.9h4.1V19c-0.2,0.3-0.4,0.6-0.7,1
			c-0.3,0.4-0.8,0.8-1.3,1.1c-0.5,0.4-1.2,0.7-2,0.9c-0.8,0.3-1.7,0.4-2.7,0.4c-1,0-1.9-0.1-2.7-0.4c-0.8-0.3-1.5-0.6-2-1
			c-0.6-0.4-1-0.9-1.4-1.4c-0.4-0.5-0.6-0.9-0.8-1.4L65.3,9.2L65.3,9.2z M74.8,12.1v-2c-0.2-0.4-0.5-0.8-0.9-1.1
			c-0.4-0.3-1-0.5-1.7-0.5c-0.7,0-1.2,0.2-1.6,0.5c-0.4,0.3-0.7,0.7-0.9,1.1v2H74.8z"/>
		<path class="st1" d="M80.7,16.7h4.1v1.3c0.2,0.3,0.4,0.5,0.8,0.8c0.4,0.2,0.9,0.4,1.5,0.4c0.6,0,1.1-0.1,1.5-0.4
			c0.4-0.2,0.7-0.5,0.9-0.8v-1.4c-0.1-0.3-0.4-0.5-0.7-0.7c-0.3-0.2-0.8-0.3-1.2-0.4l-1.6-0.3c-0.8-0.2-1.6-0.4-2.2-0.6
			c-0.6-0.2-1.1-0.5-1.5-0.8c-0.4-0.3-0.7-0.5-1-0.8c-0.2-0.2-0.4-0.5-0.5-0.7V8.2c0.1-0.2,0.4-0.5,0.7-0.9c0.3-0.4,0.7-0.7,1.3-1.1
			c0.5-0.3,1.2-0.6,1.9-0.9C85.3,5.1,86.1,5,87.1,5c1,0,1.9,0.1,2.6,0.4c0.7,0.2,1.4,0.5,1.9,0.9c0.5,0.4,0.9,0.7,1.2,1.1
			c0.3,0.4,0.5,0.7,0.7,0.9v2.5h-4.1V9.5C89.3,9.2,89,9,88.6,8.7c-0.4-0.2-0.9-0.4-1.5-0.4c-0.6,0-1.1,0.1-1.5,0.4
			c-0.4,0.2-0.7,0.5-0.8,0.8v1.3c0.1,0.3,0.4,0.5,0.7,0.6c0.4,0.2,0.8,0.3,1.2,0.4l1.7,0.4c0.8,0.2,1.6,0.4,2.2,0.6
			c0.6,0.2,1.1,0.5,1.5,0.7c0.4,0.2,0.7,0.5,1,0.7c0.2,0.2,0.4,0.5,0.5,0.6v4.4c-0.2,0.2-0.4,0.6-0.7,0.9c-0.3,0.4-0.7,0.7-1.3,1.1
			c-0.5,0.3-1.1,0.6-1.9,0.9c-0.7,0.2-1.6,0.4-2.6,0.4c-1,0-1.9-0.1-2.6-0.4c-0.7-0.2-1.4-0.5-1.9-0.9c-0.5-0.4-0.9-0.7-1.3-1.1
			c-0.3-0.4-0.5-0.7-0.7-0.9L80.7,16.7L80.7,16.7z"/>
		<path class="st1" d="M95.6-0.1h4.4v11.4h0.5l5.1-5.8h3.1V8l-4.3,4.7l4.5,6.8v2.5h-3.4l-4.1-6.2l-1.3,1.5v4.7h-4.4V-0.1z"/>
		<path class="st1" d="M108.9,26H95.6v3.9h13.3V26z"/>
		<path class="st2" d="M23.9,36.9h-1.7v-0.8c0-0.8,0.3-1.2,1.1-1.2c0.3,0,0.5,0.1,0.7,0.1l0.3-1c-0.2-0.1-0.5-0.2-1.1-0.2
			c-1.1,0-2.1,0.7-2.1,2v1.1h-1.2v1H21v6.6h1.2v-6.6h1.7V36.9z"/>
		<path class="st2" d="M25.6,44.6h1.2v-4.8c0-1,0.8-1.8,1.9-1.8c0.3,0,0.6,0.1,0.7,0.1v-1.2c-0.1,0-0.4,0-0.6,0
			c-0.9,0-1.7,0.5-2,1.3h-0.1v-1.2h-1.1V44.6z"/>
		<path class="st2" d="M33.6,44.7c2.1,0,3.5-1.6,3.5-3.9c0-2.4-1.4-4-3.5-4c-2.1,0-3.5,1.6-3.5,4C30.2,43.2,31.6,44.7,33.6,44.7z
			 M33.6,43.7c-1.6,0-2.3-1.4-2.3-2.9c0-1.5,0.7-2.9,2.3-2.9c1.6,0,2.3,1.4,2.3,2.9C35.9,42.3,35.2,43.7,33.6,43.7z"/>
		<path class="st2" d="M38.9,44.6h1.2v-4.8c0-1.1,0.8-1.9,1.7-1.9c0.9,0,1.5,0.6,1.5,1.5v5.2h1.2v-5c0-1,0.6-1.7,1.7-1.7
			c0.8,0,1.6,0.4,1.6,1.6v5.1h1.2v-5.1c0-1.8-1-2.6-2.3-2.6c-1.1,0-1.9,0.5-2.3,1.3h-0.1c-0.4-0.8-1-1.3-2-1.3c-1,0-1.7,0.5-2,1.3
			H40v-1.2h-1.1V44.6z"/>
		<path class="st2" d="M63.4,37.6c-0.4-2.1-2-3.3-4.1-3.3c-2.6,0-4.5,2-4.5,5.2c0,3.2,1.9,5.2,4.5,5.2c2,0,3.7-1.2,4.1-3.3h-1.2
			c-0.3,1.4-1.5,2.2-2.9,2.2c-1.8,0-3.3-1.4-3.3-4.1c0-2.6,1.5-4.1,3.3-4.1c1.4,0,2.6,0.8,2.9,2.2H63.4z"/>
		<path class="st2" d="M67.4,44.8c1.3,0,2-0.7,2.3-1.2h0.1v1h1.2v-5c0-2.4-1.8-2.7-2.8-2.7c-1.2,0-2.5,0.4-3.1,1.8l1.1,0.4
			c0.3-0.6,0.9-1.2,2-1.2c1.1,0,1.6,0.6,1.6,1.6v0c0,0.6-0.6,0.5-2,0.7c-1.4,0.2-3,0.5-3,2.2C64.8,43.9,66,44.8,67.4,44.8z
			 M67.6,43.7c-0.9,0-1.6-0.4-1.6-1.2c0-0.9,0.8-1.2,1.7-1.3c0.5-0.1,1.8-0.2,2-0.4v1.1C69.8,42.8,69,43.7,67.6,43.7z"/>
		<path class="st2" d="M73.1,44.6h1.2v-4.8c0-1,0.8-1.8,1.9-1.8c0.3,0,0.6,0.1,0.7,0.1v-1.2c-0.1,0-0.4,0-0.6,0
			c-0.9,0-1.7,0.5-2,1.3h-0.1v-1.2h-1.1V44.6z"/>
		<path class="st2" d="M82.1,36.9h-1.6v-1.8h-1.2v1.8h-1.2v1h1.2v4.8c0,1.3,1.1,2,2.1,2c0.4,0,0.7-0.1,0.9-0.1L82,43.5
			c-0.1,0-0.3,0.1-0.5,0.1c-0.5,0-1-0.2-1-1.2v-4.5h1.6V36.9z"/>
		<path class="st2" d="M86.1,44.8c1.3,0,2-0.7,2.3-1.2h0.1v1h1.2v-5c0-2.4-1.8-2.7-2.8-2.7c-1.2,0-2.5,0.4-3.1,1.8l1.1,0.4
			c0.3-0.6,0.9-1.2,2-1.2c1.1,0,1.6,0.6,1.6,1.6v0c0,0.6-0.6,0.5-2,0.7c-1.4,0.2-3,0.5-3,2.2C83.5,43.9,84.6,44.8,86.1,44.8z
			 M86.3,43.7c-0.9,0-1.6-0.4-1.6-1.2c0-0.9,0.8-1.2,1.7-1.3c0.5-0.1,1.8-0.2,2-0.4v1.1C88.4,42.8,87.7,43.7,86.3,43.7z"/>
	</g>
</g>
</svg>
