<svg width="250" height="250" viewBox="0 0 250 250" fill="none" xmlns="http://www.w3.org/2000/svg">
<g clip-path="url(#clip0_12_539)">
<path d="M125 6.93361C148.352 6.92932 171.181 13.8501 190.6 26.8208C210.019 39.7915 225.155 58.2296 234.095 79.803C243.034 101.376 245.375 125.116 240.822 148.02C236.269 170.924 225.026 191.964 208.515 208.478C192.004 224.992 170.967 236.239 148.063 240.796C125.16 245.354 101.42 243.017 79.8448 234.081C58.2697 225.146 39.8288 210.013 26.8545 190.596C13.8803 171.18 6.95543 148.352 6.95543 125C6.98983 93.7012 19.437 63.6938 41.5666 41.5601C63.6962 19.4265 93.7013 6.97375 125 6.93361V6.93361ZM125 -3.05176e-05C100.277 -3.05176e-05 76.1099 7.33113 55.5537 21.0663C34.9976 34.8015 18.9762 54.3239 9.51522 77.1647C0.0542672 100.005 -2.42129 125.139 2.40186 149.386C7.22501 173.634 19.1302 195.907 36.6118 213.388C54.0934 230.87 76.3662 242.775 100.614 247.598C124.861 252.421 149.995 249.946 172.836 240.485C195.676 231.024 215.198 215.002 228.934 194.446C242.669 173.89 250 149.723 250 125C250 91.8479 236.83 60.0537 213.388 36.6117C189.946 13.1696 158.152 -3.05176e-05 125 -3.05176e-05V-3.05176e-05Z" fill="#E0E3F5" fill-opacity="0.15"/>
<path d="M91.5886 163.092V69.7045H137.35V93.0621H122.292V104.589H158.433V127.015H122.292V139.842H158.433V163.092H91.5886Z" fill="#E0E3F5"/>
<path d="M91.5671 195.983H158.411V178.432H91.5671V195.983Z" fill="#E0E3F5"/>
<path d="M183.697 69.9211H178.952C178.607 68.6333 178.097 67.3953 177.435 66.2376L180.772 62.9009C180.794 62.8451 180.794 62.7832 180.772 62.7275C180.782 62.7035 180.788 62.6778 180.788 62.6517C180.788 62.6257 180.782 62.5998 180.772 62.5758L175.485 57.2672C175.438 57.2246 175.376 57.2011 175.312 57.2011C175.248 57.2011 175.187 57.2246 175.139 57.2672L171.802 60.6258C170.649 59.95 169.41 59.4325 168.119 59.0874V54.3639C168.119 54.3006 168.093 54.2401 168.049 54.1954C168.004 54.1507 167.943 54.1255 167.88 54.1255H160.405C160.342 54.1255 160.281 54.1507 160.236 54.1954C160.192 54.2401 160.167 54.3006 160.167 54.3639V59.0874C158.875 59.4325 157.636 59.95 156.483 60.6258L153.125 57.2672C153.08 57.2261 153.022 57.2034 152.962 57.2034C152.902 57.2034 152.844 57.2261 152.8 57.2672L147.513 62.5758C147.486 62.5936 147.464 62.6178 147.449 62.6462C147.434 62.6745 147.425 62.7062 147.425 62.7383C147.425 62.7705 147.434 62.8022 147.449 62.8305C147.464 62.8589 147.486 62.8831 147.513 62.9009L150.849 66.2376C150.181 67.3945 149.664 68.6325 149.311 69.9211H144.587C144.524 69.9211 144.464 69.9463 144.419 69.991C144.374 70.0357 144.349 70.0962 144.349 70.1594V77.6565C144.349 77.7197 144.374 77.7802 144.419 77.8249C144.464 77.8696 144.524 77.8948 144.587 77.8948H149.311C149.664 79.1834 150.181 80.4214 150.849 81.5783L147.513 84.915C147.486 84.9328 147.464 84.957 147.449 84.9854C147.434 85.0137 147.425 85.0454 147.425 85.0776C147.425 85.1097 147.434 85.1414 147.449 85.1697C147.464 85.1981 147.486 85.2223 147.513 85.2401L152.8 90.5487C152.844 90.5898 152.902 90.6127 152.962 90.6127C153.022 90.6127 153.08 90.5898 153.125 90.5487L156.483 87.1901C157.636 87.8659 158.875 88.3834 160.167 88.7285V93.452C160.167 93.5153 160.192 93.576 160.236 93.6207C160.281 93.6654 160.342 93.6904 160.405 93.6904H167.88C167.943 93.6904 168.004 93.6654 168.049 93.6207C168.093 93.576 168.119 93.5153 168.119 93.452V88.7285C169.409 88.3803 170.647 87.8629 171.802 87.1901L175.139 90.5487C175.187 90.5913 175.248 90.6148 175.312 90.6148C175.376 90.6148 175.438 90.5913 175.485 90.5487L180.772 85.2401C180.813 85.196 180.836 85.1379 180.836 85.0776C180.836 85.0172 180.813 84.9592 180.772 84.915L177.435 81.5783C178.097 80.4206 178.607 79.1826 178.952 77.8948H183.697C183.728 77.8949 183.758 77.8887 183.786 77.8765C183.814 77.8643 183.838 77.8464 183.859 77.8239C183.879 77.8014 183.895 77.7748 183.904 77.746C183.914 77.7171 183.917 77.6867 183.914 77.6565V70.1594C183.917 70.1292 183.914 70.0988 183.904 70.0699C183.895 70.0411 183.879 70.0145 183.859 69.992C183.838 69.9695 183.814 69.9516 183.786 69.9394C183.758 69.9272 183.728 69.921 183.697 69.9211V69.9211ZM164.197 79.8449C163.023 79.8406 161.878 79.4888 160.904 78.8339C159.931 78.1789 159.173 77.2502 158.727 76.165C158.281 75.0798 158.167 73.8868 158.398 72.7366C158.63 71.5863 159.197 70.5305 160.028 69.7024C160.859 68.8743 161.917 68.3109 163.068 68.0835C164.219 67.8562 165.412 67.9752 166.495 68.4251C167.579 68.8751 168.505 69.636 169.156 70.6119C169.808 71.5877 170.155 72.7347 170.155 73.908C170.127 75.4675 169.486 76.953 168.371 78.0437C167.256 79.1343 165.756 79.7425 164.197 79.7366V79.8449Z" fill="#E0E3F5"/>
</g>
<defs>
<clipPath id="clip0_12_539">
<rect width="250" height="250" fill="white"/>
</clipPath>
</defs>
</svg>
