<svg width="84" height="71" viewBox="0 0 84 71" fill="none" xmlns="http://www.w3.org/2000/svg">
<path d="M24.6365 70.0849V10.0396H54.0602V25.0578H44.3777V32.4695H67.6156V46.8887H44.3777V55.1363H67.6156V70.0849H24.6365Z" fill="#E0E3F5"/>
<path d="M83.86 10.1786H80.809C80.5869 9.35056 80.2591 8.55454 79.8337 7.8102L81.9792 5.66476C81.9932 5.62893 81.9932 5.58912 81.9792 5.55328C81.9858 5.53785 81.9891 5.52131 81.9891 5.50456C81.9891 5.48781 81.9858 5.47118 81.9792 5.45575L78.5798 2.04248C78.5492 2.01507 78.5096 1.99997 78.4684 1.99997C78.4273 1.99997 78.3877 2.01507 78.357 2.04248L76.2115 4.20195C75.47 3.7674 74.6735 3.43466 73.8432 3.21278V0.175689C73.8432 0.135045 73.827 0.0960974 73.7983 0.0673578C73.7696 0.0386182 73.7304 0.0224609 73.6898 0.0224609H68.8835C68.8428 0.0224609 68.8039 0.0386182 68.7751 0.0673578C68.7464 0.0960974 68.7302 0.135045 68.7302 0.175689V3.21278C67.8999 3.43466 67.1032 3.7674 66.3617 4.20195L64.2024 2.04248C64.1741 2.01604 64.1366 2.00141 64.0979 2.00141C64.0591 2.00141 64.0218 2.01604 63.9934 2.04248L60.5942 5.45575C60.577 5.46719 60.5628 5.48276 60.553 5.50099C60.5433 5.51922 60.5381 5.53957 60.5381 5.56026C60.5381 5.58095 60.5433 5.60129 60.553 5.61952C60.5628 5.63775 60.577 5.65332 60.5942 5.66476L62.7396 7.8102C62.3098 8.55405 61.9774 9.35004 61.7505 10.1786H58.7133C58.6726 10.1786 58.6337 10.1948 58.605 10.2235C58.5762 10.2522 58.5601 10.2912 58.5601 10.3318V15.1522C58.5601 15.1929 58.5762 15.2318 58.605 15.2605C58.6337 15.2893 58.6726 15.3054 58.7133 15.3054H61.7505C61.9774 16.134 62.3098 16.93 62.7396 17.6738L60.5942 19.8193C60.577 19.8307 60.5628 19.8463 60.553 19.8645C60.5433 19.8827 60.5381 19.9031 60.5381 19.9238C60.5381 19.9445 60.5433 19.9648 60.553 19.983C60.5628 20.0013 60.577 20.0168 60.5942 20.0283L63.9934 23.4416C64.0218 23.468 64.0591 23.4827 64.0979 23.4827C64.1366 23.4827 64.1741 23.468 64.2024 23.4416L66.3617 21.2821C67.1032 21.7166 67.8999 22.0494 68.7302 22.2713V25.3083C68.7302 25.349 68.7464 25.388 68.7751 25.4168C68.8039 25.4455 68.8428 25.4616 68.8835 25.4616H73.6898C73.7304 25.4616 73.7696 25.4455 73.7983 25.4168C73.827 25.388 73.8432 25.349 73.8432 25.3083V22.2713C74.6728 22.0473 75.4691 21.7147 76.2115 21.2821L78.357 23.4416C78.3877 23.469 78.4273 23.4841 78.4684 23.4841C78.5096 23.4841 78.5492 23.469 78.5798 23.4416L81.9792 20.0283C82.0057 19.9999 82.0204 19.9626 82.0204 19.9238C82.0204 19.885 82.0057 19.8476 81.9792 19.8193L79.8337 17.6738C80.2591 16.9295 80.5869 16.1335 80.809 15.3054H83.86C83.8795 15.3055 83.8989 15.3016 83.9168 15.2937C83.9347 15.2858 83.9506 15.2743 83.9637 15.2599C83.9769 15.2454 83.9868 15.2283 83.993 15.2098C83.9991 15.1912 84.0012 15.1716 83.9993 15.1522V10.3318C84.0012 10.3124 83.9991 10.2928 83.993 10.2743C83.9868 10.2557 83.9769 10.2386 83.9637 10.2242C83.9506 10.2097 83.9347 10.1982 83.9168 10.1903C83.8989 10.1825 83.8795 10.1785 83.86 10.1786ZM71.3215 16.5593C70.5671 16.5566 69.8304 16.3304 69.2045 15.9092C68.5786 15.4881 68.0915 14.891 67.8047 14.1932C67.518 13.4955 67.4443 12.7284 67.5932 11.9888C67.742 11.2493 68.1067 10.5704 68.6411 10.038C69.1755 9.5055 69.8557 9.14324 70.5958 8.99708C71.3359 8.85092 72.1026 8.92739 72.7994 9.21672C73.4961 9.50604 74.0915 9.99528 74.5104 10.6227C74.9292 11.2502 75.1527 11.9877 75.1527 12.7421C75.1344 13.7448 74.7222 14.6999 74.0053 15.4012C73.2884 16.1025 72.3244 16.4935 71.3215 16.4897V16.5593Z" fill="#E0E3F5"/>
<g clip-path="url(#clip0_10_296)">
<path d="M7.43071 61.4414L10.104 61.4414C10.3681 61.5836 10.6198 61.7475 10.8566 61.9315C11.154 62.164 11.4142 62.4403 11.6285 62.751C11.8898 63.1235 12.0952 63.5322 12.2383 63.9642C12.5672 65.0487 12.5641 66.2069 12.2293 67.2897C12.0807 67.7339 11.867 68.1536 11.5951 68.535C11.3633 68.8619 11.0805 69.1495 10.7576 69.3867C10.489 69.5857 10.2001 69.7556 9.89561 69.8936L2.72861 69.8936C2.42385 69.7554 2.13451 69.5855 1.86538 69.3867C1.54311 69.1491 1.26082 68.8616 1.02916 68.535C0.757262 68.1536 0.543517 67.7339 0.394927 67.2897C0.0583845 66.2072 0.0552477 65.0485 0.385923 63.9642C0.528767 63.5338 0.730981 63.1255 0.98671 62.751C1.19923 62.4389 1.45974 62.1623 1.7586 61.9315C1.99999 61.7443 2.25842 61.5802 2.53049 61.4414L5.01726 61.4414L5.01726 63.9642L3.25349 63.9642C2.96577 64.0843 2.71877 64.2849 2.54207 64.5418C2.32855 64.8591 2.22216 65.2364 2.23846 65.6186C2.21847 65.9658 2.30494 66.3109 2.48632 66.6077C2.6677 66.9045 2.93535 67.1388 3.25349 67.2794L9.37587 67.2794C9.65686 67.1555 9.8972 66.9549 10.0693 66.7005C10.2841 66.3837 10.391 66.0061 10.3742 65.6237C10.3917 65.2441 10.2846 64.8691 10.0693 64.5559C9.89292 64.3036 9.65396 64.1014 9.37587 63.9693L7.43071 63.9693L7.43071 61.4414Z" fill="#E0E3F5"/>
<path d="M3.05023 51.5625L3.05023 49.2687L3.81182 49.2687C3.52379 48.9993 3.29356 48.674 3.13513 48.3128C2.94401 47.8661 2.85143 47.3834 2.86369 46.8977C2.85649 46.5069 2.92871 46.1187 3.07595 45.7566C3.20306 45.4462 3.37992 45.1585 3.59955 44.9049C3.79458 44.6814 4.02281 44.4892 4.27624 44.335C4.48829 44.2051 4.71178 44.0949 4.94393 44.0057L10.3472 44.0057C10.5794 44.0946 10.8029 44.2048 11.0148 44.335C11.2688 44.4885 11.4971 44.6808 11.6915 44.9049C11.9112 45.1587 12.0885 45.4463 12.2164 45.7566C12.3626 46.119 12.4344 46.507 12.4274 46.8977C12.4387 47.3501 12.3609 47.8004 12.1984 48.2228C12.0638 48.5626 11.8661 48.8738 11.6156 49.1401L14.846 49.1401L14.846 51.5625L3.05023 51.5625ZM4.79727 47.7532C4.78896 48.0429 4.84383 48.3309 4.95808 48.5972C5.04528 48.8059 5.17957 48.9917 5.35046 49.1401L9.9342 49.1401C10.1076 48.9918 10.2437 48.805 10.3317 48.5946C10.4459 48.3256 10.5008 48.0351 10.4925 47.7429C10.511 47.4292 10.4246 47.1183 10.2468 46.8591C10.1306 46.6897 9.9846 46.5428 9.81584 46.4256L5.46882 46.4256C5.29264 46.5399 5.14269 46.6903 5.02884 46.8668C4.86158 47.1311 4.78066 47.4409 4.79727 47.7532Z" fill="#E0E3F5"/>
<path d="M11.4741 37.6274C11.7578 37.9036 11.9873 38.2304 12.1508 38.591C12.343 39.0373 12.4352 39.5203 12.421 40.0061C12.4295 40.3998 12.3577 40.7912 12.21 41.1562C12.0808 41.4631 11.9036 41.7476 11.6851 41.9989C11.4907 42.2234 11.2624 42.4161 11.0084 42.5701C10.7963 42.6997 10.5728 42.81 10.3408 42.8994L4.93752 42.8994C4.70561 42.8097 4.48216 42.6995 4.26984 42.5701C4.01637 42.4154 3.78815 42.2228 3.59315 41.9989C3.37462 41.7478 3.19784 41.4633 3.06955 41.1562C2.9243 40.7907 2.85556 40.3993 2.86757 40.0061C2.85671 39.5617 2.93455 39.1195 3.09657 38.7055C3.23476 38.3629 3.43201 38.0472 3.67934 37.7728L-2.24092e-07 37.7728L-3.30149e-07 35.3465L12.2345 35.3465L12.2345 37.6274L11.4741 37.6274ZM10.4926 39.1377C10.499 38.8595 10.4473 38.5831 10.3408 38.326C10.2545 38.1182 10.1277 37.9296 9.96767 37.7715L5.33633 37.7715C5.16912 37.9262 5.03744 38.1154 4.95039 38.326C4.84339 38.5883 4.79171 38.8699 4.79858 39.1532C4.78067 39.4668 4.86707 39.7776 5.0443 40.037C5.16122 40.2062 5.30712 40.3534 5.47527 40.4718L9.81458 40.4718C10.0344 40.3283 10.2127 40.1295 10.3314 39.8953C10.4502 39.6612 10.5053 39.3999 10.4913 39.1377L10.4926 39.1377Z" fill="#E0E3F5"/>
<path d="M11.4741 55.0449C11.7578 55.3216 11.9873 55.6488 12.1508 56.0097C12.3433 56.456 12.4355 56.9391 12.421 57.4249C12.4294 57.8182 12.3576 58.2091 12.21 58.5737C12.0808 58.881 11.9036 59.1659 11.6851 59.4176C11.4907 59.6418 11.2623 59.8341 11.0084 59.9876C10.7962 60.1172 10.5728 60.2275 10.3407 60.3169L4.93751 60.3169C4.70559 60.2272 4.48214 60.117 4.26982 59.9876C4.01639 59.8334 3.78816 59.6412 3.59313 59.4176C3.3746 59.1661 3.19782 58.8812 3.06953 58.5737C2.92087 58.2093 2.84862 57.8183 2.85726 57.4249C2.8464 56.98 2.92424 56.5374 3.08625 56.123C3.22444 55.7807 3.4217 55.4655 3.66903 55.1915L3.0438 54.7644L3.0438 52.7652L12.228 52.7652L12.228 55.0449L11.4741 55.0449ZM10.4925 56.5552C10.499 56.2774 10.4473 56.0014 10.3407 55.7447C10.2549 55.5367 10.1281 55.3481 9.96766 55.1903L5.33632 55.1903C5.16882 55.3448 5.0371 55.534 4.95037 55.7447C4.84338 56.0071 4.7917 56.2887 4.79856 56.5719C4.78104 56.8856 4.86741 57.1962 5.04428 57.4558C5.16153 57.6243 5.30739 57.7711 5.47526 57.8893L9.81457 57.8893C10.0348 57.7462 10.2133 57.5474 10.3321 57.3132C10.451 57.0789 10.5058 56.8175 10.4913 56.5552L10.4925 56.5552Z" fill="#E0E3F5"/>
<path d="M5.11375 34.1831C4.84305 34.0672 4.58733 33.9191 4.35215 33.7418C4.06456 33.5261 3.81089 33.2685 3.59956 32.9777C3.35376 32.6373 3.16276 32.2605 3.03351 31.861C2.87882 31.375 2.80451 30.867 2.81352 30.3571C2.80384 29.853 2.87818 29.3509 3.03351 28.8712C3.16057 28.4887 3.33656 28.1241 3.55711 27.7867C3.73335 27.5165 3.95033 27.2753 4.20035 27.0714C4.37764 26.9281 4.56415 26.7966 4.75868 26.6778L8.36084 26.6778L8.36084 31.7568L9.71422 31.7568C9.9469 31.6451 10.1455 31.4732 10.2893 31.2589C10.4688 30.9938 10.5589 30.6783 10.5466 30.3584C10.5587 30.0288 10.4688 29.7036 10.2893 29.427C10.1522 29.2069 9.95171 29.0333 9.71422 28.9291L9.20734 28.9291L9.20734 26.679L10.5427 26.679C10.743 26.7934 10.9328 26.9252 11.1101 27.0727C11.3555 27.2772 11.5692 27.5169 11.7443 27.7841C11.9657 28.1212 12.1422 28.4858 12.2692 28.8686C12.4234 29.3485 12.4973 29.8506 12.4879 30.3545C12.4965 30.8639 12.4226 31.3713 12.2692 31.8571C12.1401 32.2569 11.9486 32.6338 11.7018 32.9738C11.4909 33.265 11.2371 33.5226 10.9492 33.738C10.7142 33.9155 10.4585 34.0636 10.1876 34.1792L5.11375 34.1831ZM6.70385 31.7568L6.70385 28.9265L5.58718 28.9265C5.3429 29.0268 5.13602 29.2009 4.9954 29.4244C4.81586 29.701 4.72602 30.0263 4.7381 30.3558C4.72574 30.6757 4.81588 30.9913 4.9954 31.2564C5.1426 31.474 5.34752 31.6464 5.58718 31.7542L6.70385 31.7568Z" fill="#E0E3F5"/>
<path d="M9.25755 25.667L9.25755 23.4105L10.0024 23.4105C10.1782 23.2944 10.3231 23.1372 10.4244 22.9525C10.5684 22.7013 10.6388 22.4146 10.6277 22.1253C10.6398 21.8307 10.5699 21.5385 10.4257 21.2814C10.3214 21.095 10.1778 20.9334 10.005 20.8079L9.2151 20.8079C9.0557 20.8973 8.92904 21.0352 8.8536 21.2016C8.74855 21.4185 8.67201 21.6482 8.62589 21.8847L8.44192 22.7853C8.36698 23.1908 8.25678 23.5889 8.11258 23.9753C8.00126 24.2685 7.86257 24.5507 7.69833 24.8179C7.57789 25.0153 7.43594 25.1986 7.27508 25.3647C7.16446 25.4793 7.0395 25.5792 6.90329 25.6618L4.57089 25.6618C4.39878 25.5508 4.23496 25.4274 4.08074 25.2926C3.85335 25.0925 3.65695 24.8597 3.49796 24.6018C3.15311 24.0133 2.93261 23.3603 2.85007 22.6832C2.76754 22.0061 2.82473 21.3193 3.0181 20.6651C3.13468 20.2984 3.30135 19.9494 3.5134 19.6282C3.67898 19.3757 3.87708 19.146 4.10261 18.9451C4.30245 18.7736 4.46454 18.6449 4.5889 18.5592L5.97573 18.5592L5.97573 20.8144L5.30033 20.8144C5.11997 20.9348 4.97162 21.0973 4.86807 21.2878C4.72959 21.5469 4.66254 21.8382 4.67381 22.1317C4.66284 22.4199 4.72996 22.7058 4.86807 22.9589C4.96662 23.1477 5.11472 23.306 5.29647 23.4169L5.98602 23.4169C6.1457 23.3271 6.27002 23.1855 6.33852 23.0156C6.43623 22.7997 6.50958 22.5736 6.55722 22.3414L6.7592 21.4255C6.8445 21.0205 6.96062 20.6227 7.10655 20.2355C7.21495 19.9465 7.3475 19.6672 7.50279 19.4005C7.61558 19.2048 7.75213 19.0237 7.90932 18.8615C8.01688 18.7507 8.13542 18.6511 8.2631 18.5643L10.7151 18.5643C10.8932 18.6833 11.0626 18.8149 11.222 18.958C11.4467 19.1607 11.6428 19.3932 11.8048 19.6488C12.0105 19.9745 12.1727 20.3257 12.2872 20.6934C12.4298 21.1593 12.4979 21.6447 12.4892 22.1317C12.4983 22.6165 12.4292 23.0995 12.2846 23.5623C12.1667 23.931 12.0001 24.2823 11.7894 24.6069C11.6255 24.8627 11.4277 25.0951 11.2014 25.2978C11.0459 25.4372 10.877 25.5609 10.6971 25.667L9.25755 25.667Z" fill="#E0E3F5"/>
<path d="M0 17.4297L-1.06057e-07 15.0034L6.26389 15.0034L6.26389 14.7152L3.04768 11.9184L3.04768 10.2318L4.45123 10.2318L7.05636 12.626L10.8283 10.1186L12.2319 10.1186L12.2319 12.0149L8.833 14.2649L9.66149 15.0034L12.2345 15.0034L12.2345 17.4297L0 17.4297Z" fill="#E0E3F5"/>
<path d="M14.3996 10.1196L14.3996 17.4307L16.5403 17.4307L16.5403 10.1196L14.3996 10.1196Z" fill="#E0E3F5"/>
</g>
<defs>
<clipPath id="clip0_10_296">
<rect width="59.7739" height="16.5403" fill="white" transform="translate(0 69.8936) rotate(-90)"/>
</clipPath>
</defs>
</svg>
