<svg width="131" height="37" viewBox="0 0 131 37" fill="none" xmlns="http://www.w3.org/2000/svg">
<g clip-path="url(#clip0_12_545)">
<path d="M18.5277 16.6229V22.5955C18.2157 23.1864 17.8564 23.75 17.4535 24.2806C16.9445 24.9497 16.3393 25.5366 15.6584 26.0212C14.8413 26.6033 13.946 27.0616 13.0003 27.382C10.623 28.1216 8.08305 28.1157 5.70916 27.365C4.73635 27.03 3.81685 26.5514 2.97995 25.9444C2.2642 25.4255 1.63422 24.7932 1.11381 24.0715C0.679244 23.4729 0.307329 22.8295 0.00415039 22.1518V6.10268C0.307329 5.42495 0.679244 4.78152 1.11381 4.18292C1.63472 3.46107 2.26461 2.82821 2.97995 2.30797C3.81744 1.70248 4.73682 1.22465 5.70916 0.889484C8.08305 0.139547 10.6226 0.132861 13.0003 0.870288C13.9427 1.19133 14.8371 1.64353 15.6584 2.21411C16.3404 2.68974 16.9459 3.27043 17.4535 3.93549C17.8625 4.47444 18.2221 5.05066 18.5277 5.65686V11.2199H12.9961V7.27586C12.731 6.63315 12.2907 6.08161 11.7276 5.68673C11.1174 5.2331 10.331 5.00628 9.36831 5.00628C8.40563 5.00628 7.62755 5.2331 7.03406 5.68673C6.47588 6.09151 6.0325 6.63975 5.74887 7.27586V20.9743C6.02119 21.6022 6.46068 22.1395 7.01734 22.5251C7.62755 22.9787 8.41399 23.2055 9.37666 23.2055C10.3393 23.2055 11.1195 22.9787 11.7172 22.5251C12.2691 22.1289 12.7122 21.595 13.0045 20.9743V16.6229H18.5277Z" fill="#E0E3F5"/>
<path d="M40.1753 6.82151H45.2095V8.52795C45.7996 7.88524 46.5102 7.37021 47.2992 7.01348C48.2835 6.58407 49.3472 6.3774 50.4172 6.40769C51.2758 6.39048 52.129 6.55159 52.9248 6.88123C53.605 7.16659 54.2353 7.56281 54.791 8.05441C55.2833 8.48903 55.7063 8.99925 56.0448 9.56675C56.3294 10.0412 56.5714 10.541 56.7679 11.0599V23.1309C56.5714 23.6498 56.3294 24.1495 56.0448 24.624C55.7063 25.1915 55.2833 25.7017 54.791 26.1363C54.2353 26.6279 53.605 27.0241 52.9248 27.3095C52.129 27.6391 51.2758 27.8003 50.4172 27.783C49.4248 27.8078 48.4372 27.6338 47.5103 27.2711C46.7608 26.9709 46.0738 26.5287 45.4853 25.9678V33.1946H40.1753V6.82151ZM48.5217 10.7186C47.8869 10.7002 47.2558 10.8232 46.6723 11.0791C46.2177 11.2803 45.814 11.5845 45.4916 11.9686V22.2222C45.8177 22.6095 46.2277 22.914 46.689 23.1117C47.2787 23.3663 47.9152 23.4885 48.5552 23.47C49.3785 23.47 50.018 23.2887 50.4924 22.9218C50.863 22.6608 51.185 22.3343 51.4432 21.9577V12.2331C51.1922 11.8393 50.8625 11.5042 50.4757 11.2497C49.995 10.8956 49.3437 10.7186 48.5217 10.7186Z" fill="#E0E3F5"/>
<path d="M70.7128 25.6649C70.1086 26.3015 69.3917 26.8153 68.6001 27.1794C67.6228 27.61 66.565 27.8167 65.501 27.7852C64.6423 27.8029 63.789 27.6418 62.9933 27.3117C62.3204 27.0232 61.6968 26.6272 61.146 26.1385C60.6538 25.7036 60.2309 25.1935 59.8921 24.6261C59.609 24.1512 59.3677 23.6515 59.1711 23.133V11.0578C59.3677 10.5393 59.609 10.0396 59.8921 9.56463C60.2309 8.99731 60.6538 8.48713 61.146 8.05229C61.6968 7.56357 62.3204 7.16754 62.9933 6.87911C63.789 6.54895 64.6423 6.38782 65.501 6.40557C66.4757 6.38169 67.4453 6.5557 68.3535 6.9175C69.1047 7.22645 69.7966 7.66838 70.3973 8.22294V0H75.7136V27.3693H70.7128V25.6649ZM67.4027 23.47C68.0121 23.4843 68.6178 23.3688 69.181 23.1309C69.6359 22.9376 70.0491 22.6549 70.3973 22.299V11.9302C70.0589 11.553 69.6438 11.256 69.181 11.0599C68.6068 10.8192 67.9898 10.703 67.3692 10.7186C66.5459 10.7186 65.9001 10.9021 65.432 11.2689C65.0614 11.53 64.7394 11.8565 64.4812 12.2331V21.9577C64.7316 22.3519 65.0615 22.6871 65.4488 22.941C65.9294 23.2951 66.5918 23.47 67.4027 23.47Z" fill="#E0E3F5"/>
<path d="M32.5417 25.6649C31.9363 26.301 31.2188 26.8148 30.4268 27.1794C29.4502 27.6097 28.3931 27.8165 27.3298 27.7852C26.4675 27.8048 25.6105 27.6437 24.8117 27.3117C24.1379 27.0237 23.5135 26.6277 22.9623 26.1385C22.4699 25.7039 22.0469 25.1936 21.7084 24.6261C21.4239 24.1516 21.1819 23.6519 20.9854 23.133V11.0578C21.1819 10.5389 21.4239 10.0391 21.7084 9.56463C22.0469 8.99714 22.4699 8.48691 22.9623 8.0523C23.5135 7.56312 24.1379 7.16706 24.8117 6.87912C25.6105 6.54712 26.4675 6.38595 27.3298 6.40558C28.3038 6.38186 29.2727 6.55588 30.1802 6.91751C30.9315 7.22646 31.6234 7.66839 32.224 8.22294L33.1602 6.82152H37.5487V27.3693H32.5417V25.6649ZM29.2315 23.47C29.8409 23.4838 30.4465 23.3683 31.0099 23.1309C31.464 22.9373 31.8765 22.6547 32.224 22.299V11.9302C31.886 11.5536 31.4717 11.2566 31.0099 11.0599C30.4348 10.8194 29.8172 10.7032 29.196 10.7186C28.3726 10.7186 27.7269 10.9021 27.2588 11.2689C26.8881 11.53 26.5661 11.8565 26.3079 12.2331V21.9577C26.5584 22.3519 26.8882 22.6871 27.2755 22.941C27.7561 23.2951 28.4081 23.47 29.2315 23.47Z" fill="#E0E3F5"/>
<path d="M78.261 11.4375C78.5144 10.8306 78.8393 10.2576 79.2285 9.73102C79.6999 9.08759 80.2635 8.52025 80.9003 8.04804C81.6471 7.50063 82.4736 7.07665 83.3495 6.79167C84.4167 6.44226 85.5328 6.27365 86.6534 6.29253C87.7555 6.27415 88.8529 6.44282 89.9009 6.79167C90.7396 7.07539 91.5384 7.46979 92.2769 7.96485C92.8691 8.35761 93.3978 8.8419 93.8442 9.40039C94.1575 9.79799 94.4458 10.2155 94.7073 10.6504V18.709H83.5794V21.7231C83.8262 22.2403 84.2025 22.6818 84.6702 23.0029C85.2523 23.4006 85.9431 23.5992 86.643 23.5703C87.3643 23.5986 88.0769 23.4006 88.6846 23.0029C89.1646 22.6956 89.5449 22.2503 89.7776 21.7231V20.5861H94.7073V23.5724C94.4552 24.0189 94.1664 24.4427 93.8442 24.8394C93.3936 25.389 92.8654 25.8671 92.2769 26.2579C91.5379 26.7521 90.7392 27.1465 89.9009 27.4311C88.8533 27.7821 87.7559 27.953 86.6534 27.9366C85.5366 27.9564 84.4242 27.79 83.36 27.4439C82.4845 27.1545 81.6588 26.727 80.9129 26.1769C79.7477 25.3105 78.8319 24.1407 78.261 22.7896V11.4375ZM83.5794 14.9954H89.788V12.4976C89.5654 11.9521 89.1839 11.4897 88.6951 11.173C88.0873 10.7753 87.3748 10.5773 86.6534 10.6056C85.9536 10.5766 85.2628 10.7753 84.6807 11.173C84.2048 11.5039 83.8274 11.9622 83.5898 12.4976L83.5794 14.9954Z" fill="#E0E3F5"/>
<path d="M96.9246 20.7077H101.856V22.3736C102.11 22.7673 102.455 23.0917 102.86 23.3186C103.411 23.6401 104.039 23.7975 104.673 23.7729C105.319 23.7998 105.959 23.6441 106.523 23.3228C106.934 23.0899 107.29 22.769 107.568 22.3822V20.6139C107.371 20.2578 107.069 19.9742 106.705 19.8033C106.229 19.5696 105.726 19.399 105.208 19.2956L103.236 18.8818C102.347 18.716 101.475 18.4697 100.63 18.1459C99.9858 17.898 99.3666 17.5881 98.7803 17.2202C98.3488 16.9505 97.9473 16.6336 97.5829 16.2752C97.3324 16.0268 97.1133 15.7473 96.9309 15.4433V10.2237C97.1716 9.8431 97.4384 9.48029 97.7292 9.13801C98.1686 8.62985 98.6791 8.19069 99.2442 7.83472C100.534 7.06397 101.965 6.57163 103.449 6.38818C104.933 6.20473 106.438 6.33407 107.871 6.76819C108.675 7.02363 109.442 7.39037 110.149 7.85818C110.702 8.22894 111.205 8.67213 111.645 9.17641C111.941 9.5242 112.22 9.8873 112.481 10.2643V13.3679H107.561V11.8555C107.296 11.4509 106.937 11.1191 106.517 10.8893C105.948 10.5811 105.31 10.4338 104.667 10.4626C104.036 10.4369 103.41 10.5842 102.853 10.8893C102.44 11.1111 102.094 11.4427 101.85 11.8491V13.3913C102.047 13.7485 102.358 14.0267 102.73 14.1806C103.204 14.3998 103.7 14.5643 104.209 14.6712L106.216 15.1212C107.102 15.3121 107.974 15.5717 108.822 15.8977C109.455 16.1412 110.068 16.438 110.654 16.785C111.082 17.0372 111.478 17.3424 111.833 17.6937C112.077 17.9342 112.295 18.2001 112.485 18.4872V23.9692C112.224 24.3675 111.936 24.7461 111.622 25.1018C111.178 25.6058 110.668 26.045 110.107 26.4072C109.39 26.8674 108.617 27.2295 107.808 27.4844C106.788 27.8047 105.724 27.958 104.657 27.9388C103.594 27.9589 102.536 27.804 101.522 27.4802C100.711 27.2174 99.9378 26.8451 99.2234 26.3731C98.6627 26.005 98.1531 25.5617 97.7083 25.0549C97.4024 24.7076 97.1309 24.3303 96.8975 23.9286L96.9246 20.7077Z" fill="#E0E3F5"/>
<path d="M114.978 0H120.298V14.0121H120.925L127.052 6.82152H130.747V9.96351L125.5 15.7889L130.994 24.2273V27.3693H126.845L121.914 19.7628L120.298 21.6164V27.3757H114.978V0Z" fill="#E0E3F5"/>
<path d="M131.002 32.2134H114.978V37.0022H131.002V32.2134Z" fill="#E0E3F5"/>
</g>
<defs>
<clipPath id="clip0_12_545">
<rect width="131" height="37" fill="white"/>
</clipPath>
</defs>
</svg>
